<svg version="1.1" xmlns="http://www.w3.org/2000/svg" xmlns:xlink="http://www.w3.org/1999/xlink" width="736.6982421875" height="432"><defs/><g><g transform="translate(-174,-174) scale(1,1)"><rect fill="#C0C0C0" stroke="none" x="519" y="327" width="76.2470703125" height="44" opacity="0.2"/></g><g transform="translate(-174,-174) scale(1,1)"><rect fill="#ffffff" stroke="none" x="512" y="320" width="76.2470703125" height="44"/></g><g transform="translate(-174,-174) scale(1,1)"><path fill="none" stroke="#000000" d="M 512 320 L 588.2470703125 320 L 588.2470703125 364 L 512 364 L 512 320 Z Z" stroke-miterlimit="10"/></g><g transform="translate(-174,-174) scale(1,1)"><path fill="none" stroke="#000000" d="M 512 345 L 588.2470703125 345" stroke-miterlimit="10"/></g><g transform="translate(-174,-174) scale(1,1)"><path fill="none" stroke="#000000" d="M 512 355 L 588.2470703125 355" stroke-miterlimit="10"/></g><g transform="translate(-174,-174) scale(1,1)"><g><path fill="none" stroke="none"/><text fill="#000000" stroke="none" font-family="Arial" font-size="13px" font-style="normal" font-weight="bold" text-decoration="none" x="521.62353515625" y="339.5">GridWorld</text></g></g><g transform="translate(-174,-174) scale(1,1)"><rect fill="#C0C0C0" stroke="none" x="455" y="191" width="207.14208984375" height="87" opacity="0.2"/></g><g transform="translate(-174,-174) scale(1,1)"><rect fill="#ffffff" stroke="none" x="448" y="184" width="207.14208984375" height="87"/></g><g transform="translate(-174,-174) scale(1,1)"><path fill="none" stroke="#000000" d="M 448 184 L 655.14208984375 184 L 655.14208984375 271 L 448 271 L 448 184 Z Z" stroke-miterlimit="10"/></g><g transform="translate(-174,-174) scale(1,1)"><path fill="none" stroke="#000000" d="M 448 209 L 655.14208984375 209" stroke-miterlimit="10"/></g><g transform="translate(-174,-174) scale(1,1)"><path fill="none" stroke="#000000" d="M 448 219 L 655.14208984375 219" stroke-miterlimit="10"/></g><g transform="translate(-174,-174) scale(1,1)"><g><path fill="none" stroke="none"/><text fill="#000000" stroke="none" font-family="Arial" font-size="13px" font-style="normal" font-weight="bold" text-decoration="none" x="537.071044921875" y="203.5">MDP</text></g></g><g transform="translate(-174,-174) scale(1,1)"><g><path fill="none" stroke="none"/><text fill="#000000" stroke="none" font-family="Arial" font-size="13px" font-style="normal" font-weight="normal" text-decoration="none" x="453" y="236.5">+getTransitionStatesAndProbs()</text></g></g><g transform="translate(-174,-174) scale(1,1)"><g><path fill="none" stroke="none"/><text fill="#000000" stroke="none" font-family="Arial" font-size="13px" font-style="normal" font-weight="normal" text-decoration="none" x="453" y="251.5">+getReward()</text></g></g><g transform="translate(-174,-174) scale(1,1)"><g><path fill="none" stroke="none"/><text fill="#000000" stroke="none" font-family="Arial" font-size="13px" font-style="normal" font-weight="normal" text-decoration="none" x="453" y="266.5">+isTerminal()</text></g></g><g transform="translate(-174,-174) scale(1,1)"><rect fill="#C0C0C0" stroke="none" x="439" y="439" width="132.10009765625" height="44" opacity="0.2"/></g><g transform="translate(-174,-174) scale(1,1)"><rect fill="#ffffff" stroke="none" x="432" y="432" width="132.10009765625" height="44"/></g><g transform="translate(-174,-174) scale(1,1)"><path fill="none" stroke="#000000" d="M 432 432 L 564.10009765625 432 L 564.10009765625 476 L 432 476 L 432 432 Z Z" stroke-miterlimit="10"/></g><g transform="translate(-174,-174) scale(1,1)"><path fill="none" stroke="#000000" d="M 432 457 L 564.10009765625 457" stroke-miterlimit="10"/></g><g transform="translate(-174,-174) scale(1,1)"><path fill="none" stroke="#000000" d="M 432 467 L 564.10009765625 467" stroke-miterlimit="10"/></g><g transform="translate(-174,-174) scale(1,1)"><g><path fill="none" stroke="none"/><text fill="#000000" stroke="none" font-family="Arial" font-size="13px" font-style="normal" font-weight="bold" text-decoration="none" x="446.050048828125" y="451.5">GridWorldAdditive</text></g></g><g transform="translate(-174,-174) scale(1,1)"><rect fill="#C0C0C0" stroke="none" x="191" y="343" width="110.791015625" height="87" opacity="0.2"/></g><g transform="translate(-174,-174) scale(1,1)"><rect fill="#ffffff" stroke="none" x="184" y="336" width="110.791015625" height="87"/></g><g transform="translate(-174,-174) scale(1,1)"><path fill="none" stroke="#000000" d="M 184 336 L 294.791015625 336 L 294.791015625 423 L 184 423 L 184 336 Z Z" stroke-miterlimit="10"/></g><g transform="translate(-174,-174) scale(1,1)"><path fill="none" stroke="#000000" d="M 184 361 L 294.791015625 361" stroke-miterlimit="10"/></g><g transform="translate(-174,-174) scale(1,1)"><path fill="none" stroke="#000000" d="M 184 371 L 294.791015625 371" stroke-miterlimit="10"/></g><g transform="translate(-174,-174) scale(1,1)"><g><path fill="none" stroke="none"/><text fill="#000000" stroke="none" font-family="Arial" font-size="13px" font-style="normal" font-weight="bold" text-decoration="none" x="199.3955078125" y="355.5">ValueIteration</text></g></g><g transform="translate(-174,-174) scale(1,1)"><g><path fill="none" stroke="none"/><text fill="#000000" stroke="none" font-family="Arial" font-size="13px" font-style="normal" font-weight="normal" text-decoration="none" x="189" y="388.5">+valueIteration()</text></g></g><g transform="translate(-174,-174) scale(1,1)"><g><path fill="none" stroke="none"/><text fill="#000000" stroke="none" font-family="Arial" font-size="13px" font-style="normal" font-weight="normal" text-decoration="none" x="189" y="403.5">+getQValues()</text></g></g><g transform="translate(-174,-174) scale(1,1)"><g><path fill="none" stroke="none"/><text fill="#000000" stroke="none" font-family="Arial" font-size="13px" font-style="normal" font-weight="normal" text-decoration="none" x="189" y="418.5">+getPolicy()</text></g></g><g transform="translate(-174,-174) scale(1,1)"><rect fill="#C0C0C0" stroke="none" x="767" y="327" width="78.31640625" height="44" opacity="0.2"/></g><g transform="translate(-174,-174) scale(1,1)"><rect fill="#ffffff" stroke="none" x="760" y="320" width="78.31640625" height="44"/></g><g transform="translate(-174,-174) scale(1,1)"><path fill="none" stroke="#000000" d="M 760 320 L 838.31640625 320 L 838.31640625 364 L 760 364 L 760 320 Z Z" stroke-miterlimit="10"/></g><g transform="translate(-174,-174) scale(1,1)"><path fill="none" stroke="#000000" d="M 760 345 L 838.31640625 345" stroke-miterlimit="10"/></g><g transform="translate(-174,-174) scale(1,1)"><path fill="none" stroke="#000000" d="M 760 355 L 838.31640625 355" stroke-miterlimit="10"/></g><g transform="translate(-174,-174) scale(1,1)"><g><path fill="none" stroke="none"/><text fill="#000000" stroke="none" font-family="Arial" font-size="13px" font-style="normal" font-weight="bold" text-decoration="none" x="769.658203125" y="339.5">QLearning</text></g></g><g transform="translate(-174,-174) scale(1,1)"><rect fill="#C0C0C0" stroke="none" x="583" y="439" width="88" height="72" opacity="0.2"/></g><g transform="translate(-174,-174) scale(1,1)"><rect fill="#ffffff" stroke="none" x="576" y="432" width="88" height="72"/></g><g transform="translate(-174,-174) scale(1,1)"><path fill="none" stroke="#000000" d="M 576 432 L 664 432 L 664 504 L 576 504 L 576 432 Z Z" stroke-miterlimit="10"/></g><g transform="translate(-174,-174) scale(1,1)"><path fill="none" stroke="#000000" d="M 576 457 L 664 457" stroke-miterlimit="10"/></g><g transform="translate(-174,-174) scale(1,1)"><path fill="none" stroke="#000000" d="M 576 467 L 664 467" stroke-miterlimit="10"/></g><g transform="translate(-174,-174) scale(1,1)"><g><path fill="none" stroke="none"/><text fill="#000000" stroke="none" font-family="Arial" font-size="13px" font-style="normal" font-weight="bold" text-decoration="none" x="596.5" y="451.5">GridEnv</text></g></g><g transform="translate(-174,-174) scale(1,1)"><g><path fill="none" stroke="none"/><text fill="#000000" stroke="none" font-family="Arial" font-size="13px" font-style="normal" font-weight="normal" text-decoration="none" x="581" y="484.5">+doAction()</text></g></g><g transform="translate(-174,-174) scale(1,1)"><g><path fill="none" stroke="none"/><text fill="#000000" stroke="none" font-family="Arial" font-size="13px" font-style="normal" font-weight="normal" text-decoration="none" x="581" y="499.5">+reset()</text></g></g><g transform="translate(-174,-174) scale(1,1)"><rect fill="#C0C0C0" stroke="none" x="743" y="431" width="132.77294921875" height="44" opacity="0.2"/></g><g transform="translate(-174,-174) scale(1,1)"><rect fill="#ffffff" stroke="none" x="736" y="424" width="132.77294921875" height="44"/></g><g transform="translate(-174,-174) scale(1,1)"><path fill="none" stroke="#000000" d="M 736 424 L 868.77294921875 424 L 868.77294921875 468 L 736 468 L 736 424 Z Z" stroke-miterlimit="10"/></g><g transform="translate(-174,-174) scale(1,1)"><path fill="none" stroke="#000000" d="M 736 449 L 868.77294921875 449" stroke-miterlimit="10"/></g><g transform="translate(-174,-174) scale(1,1)"><path fill="none" stroke="#000000" d="M 736 459 L 868.77294921875 459" stroke-miterlimit="10"/></g><g transform="translate(-174,-174) scale(1,1)"><g><path fill="none" stroke="none"/><text fill="#000000" stroke="none" font-family="Arial" font-size="13px" font-style="normal" font-weight="bold" text-decoration="none" x="748.386474609375" y="443.5">EpsilonDecreasing</text></g></g><g transform="translate(-174,-174) scale(1,1)"><path fill="none" stroke="#000000" d="M 801 423 L 800 365" stroke-miterlimit="10"/></g><g transform="translate(-174,-174) scale(1,1)"><path fill="#FFFFFF" stroke="none" d="M 808.7681694372776 385.1771951648189 L 800 365 L 791.9326005413237 385.4674635940595"/></g><g transform="translate(-174,-174) scale(1,1)"><path fill="none" stroke="#000000" d="M 808.7681694372776 385.1771951648189 L 800 365 L 791.9326005413237 385.4674635940595 L 808.7681694372776 385.1771951648189" stroke-miterlimit="10"/></g><g transform="translate(-174,-174) scale(1,1)"><path fill="none" stroke="#000000" d="M 509 431 L 539 365" stroke-miterlimit="10"/></g><g transform="translate(-174,-174) scale(1,1)"><path fill="#FFFFFF" stroke="none" d="M 538.2537181466001 386.9873387065212 L 539 365 L 522.9249027411579 380.0196953404111"/></g><g transform="translate(-174,-174) scale(1,1)"><path fill="none" stroke="#000000" d="M 538.2537181466001 386.9873387065212 L 539 365 L 522.9249027411579 380.0196953404111 L 538.2537181466001 386.9873387065212" stroke-miterlimit="10"/></g><g transform="translate(-174,-174) scale(1,1)"><path fill="none" stroke="#000000" d="M 599 431 L 563 365" stroke-miterlimit="10"/></g><g transform="translate(-174,-174) scale(1,1)"><path fill="#FFFFFF" stroke="none" d="M 580.1238710221963 378.8120614397412 L 563 365 L 565.3418030137526 386.87500762616503"/></g><g transform="translate(-174,-174) scale(1,1)"><path fill="none" stroke="#000000" d="M 580.1238710221963 378.8120614397412 L 563 365 L 565.3418030137526 386.87500762616503 L 580.1238710221963 378.8120614397412" stroke-miterlimit="10"/></g><g transform="translate(-174,-174) scale(1,1)"><path fill="none" stroke="#000000" d="M 550 319 L 551 272" stroke-miterlimit="10"/></g><g transform="translate(-174,-174) scale(1,1)"><path fill="#FFFFFF" stroke="none" d="M 558.9847741394848 292.4998385833014 L 551 272 L 542.1505130647906 292.1416628157548"/></g><g transform="translate(-174,-174) scale(1,1)"><path fill="none" stroke="#000000" d="M 558.9847741394848 292.4998385833014 L 551 272 L 542.1505130647906 292.1416628157548 L 558.9847741394848 292.4998385833014" stroke-miterlimit="10"/></g><g transform="translate(-174,-174) scale(1,1)"><rect fill="#C0C0C0" stroke="none" x="559" y="559" width="136.384765625" height="44" opacity="0.2"/></g><g transform="translate(-174,-174) scale(1,1)"><rect fill="#ffffff" stroke="none" x="552" y="552" width="136.384765625" height="44"/></g><g transform="translate(-174,-174) scale(1,1)"><path fill="none" stroke="#000000" d="M 552 552 L 688.384765625 552 L 688.384765625 596 L 552 596 L 552 552 Z Z" stroke-miterlimit="10"/></g><g transform="translate(-174,-174) scale(1,1)"><path fill="none" stroke="#000000" d="M 552 577 L 688.384765625 577" stroke-miterlimit="10"/></g><g transform="translate(-174,-174) scale(1,1)"><path fill="none" stroke="#000000" d="M 552 587 L 688.384765625 587" stroke-miterlimit="10"/></g><g transform="translate(-174,-174) scale(1,1)"><g><path fill="none" stroke="none"/><text fill="#000000" stroke="none" font-family="Arial" font-size="13px" font-style="normal" font-weight="bold" text-decoration="none" x="565.6923828125" y="571.5">TestLearningAgent</text></g></g><g transform="translate(-174,-174) scale(1,1)"><path fill="none" stroke="#000000" d="M 620 551 L 620 505" stroke-miterlimit="10" stroke-dasharray="3"/></g><g transform="translate(-174,-174) scale(1,1)"><path fill="none" stroke="#000000" d="M 624.209517756016 515.1626748576241 L 620 505 L 615.790482243984 515.1626748576241" stroke-miterlimit="10"/></g><g transform="translate(-174,-174) scale(1,1)"><path fill="none" stroke="#000000" d="M 638 551 L 781 365" stroke-miterlimit="10" stroke-dasharray="3"/></g><g transform="translate(-174,-174) scale(1,1)"><path fill="none" stroke="#000000" d="M 778.1430329675036 375.6225109731753 L 781 365 L 771.4685696953346 370.49106878005614" stroke-miterlimit="10"/></g><g transform="translate(-174,-174) scale(1,1)"><path fill="none" stroke="#000000" d="M 653 551 L 769 469" stroke-miterlimit="10" stroke-dasharray="3"/></g><g transform="translate(-174,-174) scale(1,1)"><path fill="none" stroke="#000000" d="M 763.1312728131254 478.30365741018227 L 769 469 L 758.2715039646508 471.4288624538035" stroke-miterlimit="10"/></g><g transform="translate(-174,-174) scale(1,1)"><rect fill="#C0C0C0" stroke="none" x="207" y="551" width="85.26708984375" height="44" opacity="0.2"/></g><g transform="translate(-174,-174) scale(1,1)"><rect fill="#ffffff" stroke="none" x="200" y="544" width="85.26708984375" height="44"/></g><g transform="translate(-174,-174) scale(1,1)"><path fill="none" stroke="#000000" d="M 200 544 L 285.26708984375 544 L 285.26708984375 588 L 200 588 L 200 544 Z Z" stroke-miterlimit="10"/></g><g transform="translate(-174,-174) scale(1,1)"><path fill="none" stroke="#000000" d="M 200 569 L 285.26708984375 569" stroke-miterlimit="10"/></g><g transform="translate(-174,-174) scale(1,1)"><path fill="none" stroke="#000000" d="M 200 579 L 285.26708984375 579" stroke-miterlimit="10"/></g><g transform="translate(-174,-174) scale(1,1)"><g><path fill="none" stroke="none"/><text fill="#000000" stroke="none" font-family="Arial" font-size="13px" font-style="normal" font-weight="bold" text-decoration="none" x="209.633544921875" y="563.5">ValIterMain</text></g></g><g transform="translate(-174,-174) scale(1,1)"><path fill="none" stroke="#000000" d="M 274 543 L 518 365" stroke-miterlimit="10" stroke-dasharray="3"/></g><g transform="translate(-174,-174) scale(1,1)"><path fill="none" stroke="#000000" d="M 512.2707061524117 374.39016464221936 L 518 365 L 507.30892837398846 367.58862656393137" stroke-miterlimit="10"/></g><g transform="translate(-174,-174) scale(1,1)"><path fill="none" stroke="#000000" d="M 286 547 L 445 477" stroke-miterlimit="10" stroke-dasharray="3"/></g><g transform="translate(-174,-174) scale(1,1)"><path fill="none" stroke="#000000" d="M 437.3949610413244 484.94753939512265 L 445 477 L 434.0026663810942 477.24218438117106" stroke-miterlimit="10"/></g><g transform="translate(-174,-174) scale(1,1)"><path fill="none" stroke="#000000" d="M 242 543 L 240 424" stroke-miterlimit="10" stroke-dasharray="3"/></g><g transform="translate(-174,-174) scale(1,1)"><path fill="none" stroke="#000000" d="M 244.37970049971952 434.09050164921234 L 240 424 L 235.9618537811857 434.23197806464987" stroke-miterlimit="10"/></g><g transform="translate(-174,-174) scale(1,1)"><rect fill="#C0C0C0" stroke="none" x="703" y="191" width="204.6982421875" height="72" opacity="0.2"/></g><g transform="translate(-174,-174) scale(1,1)"><rect fill="#ffffff" stroke="none" x="696" y="184" width="204.6982421875" height="72"/></g><g transform="translate(-174,-174) scale(1,1)"><path fill="none" stroke="#000000" d="M 696 184 L 900.6982421875 184 L 900.6982421875 256 L 696 256 L 696 184 Z Z" stroke-miterlimit="10"/></g><g transform="translate(-174,-174) scale(1,1)"><path fill="none" stroke="#000000" d="M 696 209 L 900.6982421875 209" stroke-miterlimit="10"/></g><g transform="translate(-174,-174) scale(1,1)"><path fill="none" stroke="#000000" d="M 696 219 L 900.6982421875 219" stroke-miterlimit="10"/></g><g transform="translate(-174,-174) scale(1,1)"><g><path fill="none" stroke="none"/><text fill="#000000" stroke="none" font-family="Arial" font-size="13px" font-style="normal" font-weight="bold" text-decoration="none" x="714.84912109375" y="203.5">ReinforcementLearningAgent</text></g></g><g transform="translate(-174,-174) scale(1,1)"><g><path fill="none" stroke="none"/><text fill="#000000" stroke="none" font-family="Arial" font-size="13px" font-style="normal" font-weight="normal" text-decoration="none" x="701" y="236.5">+getAction()</text></g></g><g transform="translate(-174,-174) scale(1,1)"><g><path fill="none" stroke="none"/><text fill="#000000" stroke="none" font-family="Arial" font-size="13px" font-style="normal" font-weight="normal" text-decoration="none" x="701" y="251.5">+update()</text></g></g><g transform="translate(-174,-174) scale(1,1)"><path fill="none" stroke="#000000" d="M 799 319 L 798 257" stroke-miterlimit="10"/></g><g transform="translate(-174,-174) scale(1,1)"><path fill="#FFFFFF" stroke="none" d="M 806.7457262257653 277.1869332188909 L 798 257 L 789.9098449502019 277.4584796910774"/></g><g transform="translate(-174,-174) scale(1,1)"><path fill="none" stroke="#000000" d="M 806.7457262257653 277.1869332188909 L 798 257 L 789.9098449502019 277.4584796910774 L 806.7457262257653 277.1869332188909" stroke-miterlimit="10"/></g></g></svg>